<?xml version="1.0" standalone="no"?>
<!DOCTYPE svg PUBLIC "-//W3C//DTD SVG 20010904//EN"
 "http://www.w3.org/TR/2001/REC-SVG-20010904/DTD/svg10.dtd">
<svg version="1.0" xmlns="http://www.w3.org/2000/svg"
 width="300.000000pt" height="250.000000pt" viewBox="0 0 300.000000 250.000000"
 preserveAspectRatio="xMidYMid meet">
<metadata>
Created by potrace 1.15, written by Peter Selinger 2001-2017
</metadata>
<g transform="translate(0.000000,250.000000) scale(0.100000,-0.100000)"
fill="#000000" stroke="none">
<path d="M90 2125 l0 -245 1410 0 1410 0 0 245 0 245 -1410 0 -1410 0 0 -245z"/>
<path d="M90 1265 l0 -245 1410 0 1410 0 0 245 0 245 -1410 0 -1410 0 0 -245z"/>
<path d="M90 415 l0 -235 60 0 60 0 2 161 3 162 50 -117 50 -117 40 3 39 3 51
118 50 118 3 -165 2 -166 60 0 60 0 0 235 0 235 -79 0 -78 0 -55 -126 -55
-125 -54 125 -53 126 -78 0 -78 0 0 -235z"/>
<path d="M740 415 l0 -235 170 0 170 0 0 45 0 45 -110 0 -110 0 0 55 0 55 100
0 100 0 0 45 0 45 -100 0 -100 0 0 45 0 45 105 0 105 0 0 45 0 45 -165 0 -165
0 0 -235z"/>
<path d="M1180 415 l0 -235 60 0 59 0 3 153 3 152 80 -150 80 -150 68 -3 67
-3 0 236 0 235 -55 0 -54 0 -3 -157 -3 -158 -84 158 -85 157 -68 0 -68 0 0
-235z"/>
<path d="M1722 468 c3 -170 5 -186 26 -219 57 -93 246 -107 328 -25 45 45 54
89 54 269 l0 157 -60 0 -60 0 0 -142 c-1 -206 -14 -248 -83 -248 -74 0 -87 35
-87 236 l0 154 -61 0 -61 0 4 -182z"/>
<path d="M2240 405 l0 -245 335 0 335 0 0 245 0 245 -335 0 -335 0 0 -245z"/>
</g>
</svg>
